<?xml version="1.0" standalone="no"?>
<!DOCTYPE svg PUBLIC "-//W3C//DTD SVG 20010904//EN"
 "http://www.w3.org/TR/2001/REC-SVG-20010904/DTD/svg10.dtd">
<svg version="1.0" xmlns="http://www.w3.org/2000/svg"
 width="260.000000pt" height="226.000000pt" viewBox="0 0 260.000000 226.000000"
 preserveAspectRatio="xMidYMid meet">

<g transform="translate(0.000000,226.000000) scale(0.100000,-0.100000)"
fill="#000000" stroke="none">
<path d="M1620 1720 c-71 -24 -115 -44 -114 -52 1 -10 74 -256 79 -265 1 -3
258 77 262 81 2 2 -15 63 -37 136 -22 73 -40 135 -40 137 0 9 -46 -2 -150 -37z
m136 -185 c-3 -10 -116 -50 -120 -43 -5 8 -45 142 -43 144 1 1 29 10 62 21
l60 20 23 -66 c12 -36 21 -70 18 -76z"/>
<path d="M1377 1638 c-24 -9 -28 -14 -22 -37 9 -38 18 -43 52 -31 30 11 30 12
20 46 -11 37 -10 37 -50 22z"/>
<path d="M1118 1562 c-86 -27 -118 -41 -118 -53 0 -37 82 -271 93 -266 7 2 65
22 130 43 64 21 117 43 117 49 0 32 -80 260 -91 262 -8 1 -67 -14 -131 -35z
m112 -108 c11 -36 20 -72 20 -78 0 -12 -117 -54 -123 -45 -2 2 -12 36 -23 75
l-20 71 60 21 c34 11 62 21 63 21 1 1 11 -29 23 -65z"/>
<path d="M1428 1488 c-50 -18 -31 -75 21 -63 32 7 35 14 25 53 -7 24 -8 25
-46 10z"/>
<path d="M1838 1383 c-20 -5 -22 -20 -8 -57 8 -23 12 -24 40 -15 31 11 34 18
24 57 -6 21 -19 25 -56 15z"/>
<path d="M1533 1370 c-18 -7 -20 -14 -14 -37 7 -24 13 -28 40 -26 42 2 45 6
34 40 -11 31 -26 37 -60 23z"/>
<path d="M1703 1337 c-29 -9 -32 -13 -27 -36 9 -37 16 -41 49 -32 24 6 29 12
27 32 -6 41 -14 46 -49 36z"/>
<path d="M1390 1329 c-32 -13 -32 -11 -19 -47 10 -28 14 -31 37 -26 40 10 41
11 29 49 -11 38 -11 38 -47 24z"/>
<path d="M1495 1277 c-16 -5 -31 -11 -33 -12 -2 -2 7 -35 18 -74 20 -64 24
-71 44 -66 11 4 28 9 37 11 11 3 19 -5 26 -28 9 -33 17 -36 64 -24 23 7 26 3
37 -31 13 -42 11 -46 -35 -61 -32 -11 -33 -10 -44 29 -7 21 -13 39 -14 39 -1
0 -16 -5 -34 -11 -22 -8 -30 -16 -27 -28 25 -88 41 -131 50 -130 28 1 191 66
189 74 -1 6 -4 22 -8 36 -6 23 -2 28 24 37 34 12 36 18 21 57 -10 27 -11 26
57 50 8 3 6 23 -10 72 -12 37 -22 70 -23 71 -2 2 -16 1 -33 -3 -29 -6 -31 -9
-29 -48 l3 -41 -59 -18 c-32 -10 -62 -16 -66 -13 -5 3 -11 19 -15 35 -6 26
-10 29 -31 24 -49 -13 -57 -10 -68 27 -11 35 -12 36 -41 26z"/>
<path d="M1268 1203 c-19 -5 -21 -15 -12 -50 4 -15 14 -23 28 -23 37 0 49 15
41 49 -7 31 -16 35 -57 24z"/>
<path d="M1142 1163 c-29 -6 -36 -22 -22 -57 8 -22 14 -26 33 -21 12 4 26 11
31 15 9 9 -2 71 -12 69 -4 -1 -17 -4 -30 -6z"/>
<path d="M1903 1152 c-8 -5 -12 -24 -10 -47 2 -35 0 -39 -30 -47 -31 -8 -32
-9 -21 -41 6 -17 12 -34 14 -36 5 -5 108 31 121 43 10 9 8 24 -6 71 -19 60
-38 77 -68 57z"/>
<path d="M1290 1049 c-63 -21 -120 -41 -127 -43 -8 -3 -1 -39 24 -118 19 -62
37 -115 38 -117 3 -3 255 78 263 84 6 5 -65 229 -73 231 -6 1 -62 -15 -125
-37z m98 -88 c19 -62 17 -66 -48 -86 -33 -10 -63 -16 -66 -13 -3 4 -12 27 -19
52 -11 36 -12 48 -2 51 27 11 103 33 113 34 6 1 16 -16 22 -38z"/>
</g>
</svg>
